PathFileType	4	(X/Y/Z)	./resultDataOpenSim/trcMotMarkerGrf/sub06/qtm-12-02.trc
DataRate	CameraRate	NumFrames	NumMarkers	Units	OrigDataRate	OrigDataStartFrame	OrigNumFrames
250.000000	250.000000	5	24	m	250.000000	121	482
Frame#	Time	L.Toe.Tip			R.Toe.Tip			L.Ankle.Lat			R.Ankle.Lat			L.Ankle.Med			R.Ankle.Med			L.Heel			R.Heel			L.Knee.Lat			R.Knee.Lat			L.Knee.Med			R.Knee.Med			L.Thigh.Upper			R.Thigh.Upper			L.ASIS			R.ASIS			V.Sacral			L.Acromium			R.Acromium			C7			L.Elbow			R.Elbow			L.Wrist.Lat			R.Wrist.Lat
		X1	Y1	Z1	X2	Y2	Z2	X3	Y3	Z3	X4	Y4	Z4	X5	Y5	Z5	X6	Y6	Z6	X7	Y7	Z7	X8	Y8	Z8	X9	Y9	Z9	X10	Y10	Z10	X11	Y11	Z11	X12	Y12	Z12	X13	Y13	Z13	X14	Y14	Z14	X15	Y15	Z15	X16	Y16	Z16	X17	Y17	Z17	X18	Y18	Z18	X19	Y19	Z19	X20	Y20	Z20	X21	Y21	Z21	X22	Y22	Z22	X23	Y23	Z23	X24	Y24	Z24

121	0.48	-0.026571108	0.13842644	-0.082259119	-0.68616259	0.034994929	0.087423157	-0.14991188	0.10372414	-0.10293555	-0.81780398	0.077362823	0.097515378	-0.15410758	0.11829746	-0.018171769	-0.78670961	0.089187074	0.013037848	-0.1931025	0.038619254	-0.053530461	-0.87076099	0.060055971	0.032447849	-0.28526002	0.44479415	-0.099828592	-0.64396364	0.42477966	0.13699586	-0.30929443	0.43185967	0.025771294	-0.66568272	0.42736241	0.0046717861	-0.46762988	0.78773312	-0.14505709	-0.54668179	0.7761305	0.19786752	-0.41210088	0.83321694	-0.086945668	-0.43941989	0.82328989	0.16057528	-0.60485376	0.90422296	0.023210003	-0.48552707	1.3131462	-0.15700439	-0.46047114	1.3077144	0.20331193	-0.55430071	1.3482345	0.027258382	-0.60310921	1.0221271	-0.21062086	-0.45083473	0.99195234	0.3015815	-0.51762265	0.79758801	-0.25818117	-0.21473046	0.92279148	0.2548264
122	0.484	-0.013383507	0.14221232	-0.082046728	-0.68608532	0.034969262	0.087420629	-0.13624521	0.10535434	-0.10252368	-0.81730285	0.078317834	0.097562664	-0.14075251	0.11986416	-0.017698614	-0.78599761	0.089837584	0.013110619	-0.17844997	0.039514102	-0.053418341	-0.87038008	0.061528791	0.032558427	-0.27670506	0.44401364	-0.09907027	-0.64005726	0.42417167	0.13700287	-0.30127281	0.43083751	0.026390124	-0.66119764	0.42667717	0.0044969877	-0.45990425	0.78532267	-0.14531789	-0.53822183	0.77470196	0.1982037	-0.40447492	0.83072914	-0.086951526	-0.43270952	0.82145548	0.16066172	-0.5983143	0.9025556	0.021436108	-0.47889785	1.3112615	-0.15730271	-0.45356598	1.3056563	0.20312431	-0.5475437	1.346416	0.027104782	-0.59758041	1.0208196	-0.21047341	-0.44149719	0.98999343	0.30183718	-0.51467313	0.79575159	-0.25933397	-0.2051545	0.92380716	0.25358503
123	0.488	-0.00072686164	0.14553831	-0.081803106	-0.68601542	0.034936702	0.087432414	-0.12319534	0.10677282	-0.10202747	-0.81676215	0.07933648	0.097673152	-0.12789231	0.12127622	-0.017080934	-0.78522659	0.0905747	0.013250277	-0.16443488	0.040316138	-0.052976219	-0.86996312	0.063102696	0.032741892	-0.2680514	0.44334284	-0.098394742	-0.6360712	0.42356077	0.13703602	-0.29321172	0.42991107	0.026944475	-0.65661546	0.42598034	0.0043563921	-0.45210544	0.78303771	-0.14550275	-0.53124564	0.77310259	0.19883221	-0.39680659	0.82826491	-0.086960153	-0.42615145	0.81966086	0.16066172	-0.59240838	0.90104877	0.019030706	-0.47225036	1.3094111	-0.1575923	-0.44664097	1.3036415	0.20290828	-0.54075906	1.3445908	0.026932188	-0.59202291	1.0195594	-0.21035182	-0.43219656	0.9880922	0.3020651	-0.51165194	0.79396596	-0.26043555	-0.19566392	0.92475283	0.25236128
124	0.492	0.011391536	0.14834315	-0.081503236	-0.6859504	0.034903535	0.08745967	-0.11072552	0.10800944	-0.10143496	-0.81619001	0.080423469	0.09785205	-0.1155472	0.12249914	-0.016350737	-0.78442379	0.091392746	0.013449773	-0.15105663	0.040985057	-0.0522162	-0.86950857	0.064788531	0.032980349	-0.25928728	0.4427491	-0.097798462	-0.63199508	0.42294245	0.13709194	-0.28508979	0.42905696	0.027437607	-0.65190078	0.42526904	0.0042557883	-0.44427589	0.7808899	-0.14563255	-0.5268879	0.77134198	0.19919844	-0.38911793	0.82583482	-0.08697729	-0.41970202	0.81788377	0.16068151	-0.58653017	0.89961002	0.016775009	-0.46558289	1.307596	-0.15787665	-0.43970273	1.3016757	0.20267421	-0.53394498	1.3427775	0.026740366	-0.58636229	1.0183458	-0.21023002	-0.4229438	0.98625267	0.30226499	-0.50854901	0.79224517	-0.26148186	-0.18627058	0.92563681	0.25118831
125	0.496	0.02297104	0.15057534	-0.081122026	-0.68588356	0.034877594	0.087502159	-0.098800487	0.10902335	-0.10072516	-0.81557811	0.081583799	0.098106891	-0.1037387	0.12350075	-0.015542077	-0.78361646	0.092284245	0.013696374	-0.13834184	0.041491745	-0.051226915	-0.86901644	0.066593519	0.033263556	-0.25041199	0.44220892	-0.097261601	-0.62781406	0.42231902	0.13716889	-0.27688104	0.42826109	0.02786901	-0.6470508	0.42453813	0.0041912578	-0.43645775	0.77887873	-0.14572195	-0.52355338	0.76965842	0.19905788	-0.38144783	0.82345209	-0.087010721	-0.41324684	0.81612705	0.16073571	-0.58011552	0.89814171	0.015330173	-0.45889362	1.3058137	-0.15816403	-0.43277657	1.2997613	0.20242671	-0.52710169	1.3409935	0.026526689	-0.58047952	1.0171735	-0.21006932	-0.41375746	0.98448445	0.3024297	-0.5052956	0.79061355	-0.26245748	-0.17698047	0.9264577	0.25007345
